<svg width="51" height="51" viewBox="0 0 51 51" fill="none" xmlns="http://www.w3.org/2000/svg">
<path d="M7.53453 11.0093L6.76953 11.7843V13.5843V15.3793H8.31953H9.86953L9.87953 13.7143C9.88453 12.8043 9.88953 11.9993 9.89453 11.9293C9.89453 11.8293 9.72953 11.6343 9.11953 11.0143C8.69453 10.5843 8.33453 10.2293 8.31953 10.2293C8.30453 10.2343 7.94953 10.5843 7.53453 11.0093Z" fill="black"/>
<path d="M16.1296 10.9943L15.3696 11.7543V13.5693V15.3793H16.9196H18.4696V13.5643V11.7543L17.7046 10.9893C17.2846 10.5743 16.9346 10.2293 16.9196 10.2293C16.9046 10.2293 16.5496 10.5743 16.1296 10.9943Z" fill="black"/>
<path d="M24.7297 10.9943L23.9697 11.7543V13.5693V15.3793H25.5197H27.0697V13.5643V11.7543L26.3047 10.9893C25.8847 10.5743 25.5347 10.2293 25.5197 10.2293C25.5047 10.2293 25.1497 10.5743 24.7297 10.9943Z" fill="black"/>
<path d="M33.3296 10.9943L32.5696 11.7543V13.5693V15.3793H34.1196H35.6696V13.5643V11.7543L34.9046 10.9893C34.4846 10.5743 34.1346 10.2293 34.1196 10.2293C34.1046 10.2293 33.7496 10.5743 33.3296 10.9943Z" fill="black"/>
<path d="M41.9195 11.0143C41.3095 11.6343 41.1445 11.8293 41.1445 11.9293C41.1495 11.9993 41.1545 12.8043 41.1595 13.7143L41.1695 15.3793H42.7195H44.2695V13.5793V11.7843L43.4995 11.0043C43.0795 10.5793 42.7245 10.2293 42.7145 10.2293C42.7045 10.2293 42.3445 10.5843 41.9195 11.0143Z" fill="black"/>
<path d="M3.63964 18.4643L3.64464 20.0043H25.5196H47.3946L47.4046 18.4643L47.4146 16.9293H25.5246H3.62964L3.63964 18.4643ZM9.11964 18.5043V19.2793H8.34464H7.56964V18.5043V17.7293H8.34464H9.11964V18.5043ZM17.7196 18.5043V19.2843L16.9396 19.2693L16.1546 19.2543L16.1496 18.4893L16.1446 17.7293H16.9346H17.7196V18.5043ZM26.3096 18.4893L26.2946 19.2543H25.5196H24.7446L24.7296 18.4893L24.7146 17.7293H25.5196H26.3246L26.3096 18.4893ZM34.8896 18.4893L34.8846 19.2543L34.0996 19.2693L33.3196 19.2843V18.5043V17.7293H34.1096H34.8946L34.8896 18.4893ZM43.4696 18.5043V19.2793H42.6946H41.9196V18.5043V17.7293H42.6946H43.4696V18.5043Z" fill="#1AD079"/>
<path d="M6.76953 26.3042V30.9792H8.33453H9.89453V26.3042V21.6292H8.33453H6.76953V26.3042Z" fill="black"/>
<path d="M15.3696 26.3042V30.9792H16.9196H18.4696V26.3042V21.6292H16.9196H15.3696V26.3042Z" fill="black"/>
<path d="M23.9697 26.3042V30.9792H25.5197H27.0697V26.3042V21.6292H25.5197H23.9697V26.3042Z" fill="black"/>
<path d="M32.5696 26.3042V30.9792H34.1196H35.6696V26.3042V21.6292H34.1196H32.5696V26.3042Z" fill="black"/>
<path d="M41.1445 26.3042V30.9792H42.7095H44.2695V26.3042V21.6292H42.7095H41.1445V26.3042Z" fill="black"/>
<path d="M3.65465 32.5643C3.64465 32.5893 3.63965 33.2893 3.63965 34.1293L3.64465 35.6543H25.5196H47.3946L47.3896 34.1043V32.5543L25.5296 32.5393C13.5096 32.5343 3.66465 32.5443 3.65465 32.5643ZM9.11965 34.1043V34.8793H8.34465H7.56965V34.1043V33.3293H8.34465H9.11965V34.1043ZM17.7196 34.1043V34.8793H16.9496H16.1746L16.1596 34.2643C16.1496 33.9293 16.1496 33.5793 16.1596 33.4893L16.1746 33.3293H16.9496H17.7196V34.1043ZM26.3196 34.1043V34.8793H25.5196H24.7196V34.1043V33.3293H25.5196H26.3196V34.1043ZM34.8796 33.4893C34.8896 33.5793 34.8896 33.9293 34.8796 34.2643L34.8646 34.8793H34.0896H33.3196V34.1043V33.3293H34.0896H34.8646L34.8796 33.4893ZM43.4696 34.1043V34.8793H42.6946H41.9196V34.1043V33.3293H42.6946H43.4696V34.1043Z" fill="#1AD079"/>
<path d="M6.76953 38.8043V40.3793H8.31953C9.17453 40.3793 9.86953 40.3643 9.86953 40.3393C9.86953 40.3193 9.87453 39.6193 9.87953 38.7793L9.88953 37.2543L8.32953 37.2393L6.76953 37.2293V38.8043Z" fill="black"/>
<path d="M15.3696 38.8043V40.3793H16.9196H18.4696V38.8043V37.2293H16.9196H15.3696V38.8043Z" fill="black"/>
<path d="M23.9697 38.8043V40.3793H25.5197H27.0697V38.8043V37.2293H25.5197H23.9697V38.8043Z" fill="black"/>
<path d="M32.5696 38.8043V40.3793H34.1196H35.6696V38.8043V37.2293H34.1196H32.5696V38.8043Z" fill="black"/>
<path d="M41.1596 37.7643C41.1446 38.8043 41.1446 40.2543 41.1646 40.3143C41.1746 40.3643 41.5296 40.3793 42.7246 40.3793H44.2696V38.8043V37.2293H42.7196H41.1696L41.1596 37.7643Z" fill="black"/>
</svg>
