<svg width="50" height="50" viewBox="0 0 50 50" fill="none" xmlns="http://www.w3.org/2000/svg">
<g clip-path="url(#clip0_270_803)">
<path d="M11.8163 0.0765543C11.7755 0.117371 11.7194 0.31635 11.6837 0.520432C11.2908 3.03064 9.67349 4.66329 7.2041 5.05104C7.00002 5.08676 6.78573 5.15308 6.71941 5.2041C6.61737 5.29084 6.61737 5.30615 6.68369 5.37757C6.72961 5.42349 7.00002 5.50002 7.32145 5.56125C8.2092 5.71941 8.89288 5.98982 9.54083 6.42859C10.7143 7.22961 11.4949 8.54594 11.699 10.0612C11.7551 10.4847 11.7755 10.5357 11.8725 10.551C12.0204 10.5715 12.0714 10.4643 12.1684 9.89798C12.4082 8.51533 13.0255 7.42349 14 6.65308C14.7194 6.08166 15.5 5.73982 16.4949 5.56125C16.8214 5.50002 17.097 5.42349 17.1429 5.37757C17.2092 5.30615 17.2092 5.29084 17.1072 5.2041C17.0408 5.15308 16.8265 5.08676 16.6225 5.05104C16.0306 4.95921 15.3623 4.75513 14.9235 4.53574C13.4796 3.80615 12.4745 2.4337 12.199 0.81635C12.0765 0.0918598 11.9847 -0.0867109 11.8163 0.0765543Z" fill="#1AD079"/>
<path d="M22.153 5.72967C22.1224 5.76539 22.0714 5.94906 22.0408 6.13784C21.8622 7.15824 21.0561 7.98988 20.0612 8.17355C19.903 8.19906 19.7193 8.23477 19.6581 8.24498C19.5765 8.26028 19.5408 8.3011 19.5408 8.38783C19.5408 8.5511 19.6224 8.60212 19.9489 8.63784C20.3265 8.68375 20.9846 9.01028 21.2857 9.3113C21.6938 9.71437 21.9336 10.1787 22.0612 10.8164C22.1122 11.0664 22.1326 11.097 22.2551 11.1123C22.403 11.1327 22.3979 11.1378 22.5255 10.5919C22.6275 10.1378 22.8979 9.62253 23.204 9.3113C23.4795 9.03069 24.0357 8.74498 24.4795 8.66335C24.8826 8.59192 25 8.53579 25 8.42865C25 8.28579 24.8979 8.21437 24.6836 8.21437C24.2857 8.21437 23.5153 7.85212 23.1683 7.50518C22.8265 7.16335 22.4489 6.35212 22.4489 5.95416C22.4489 5.70416 22.2806 5.57661 22.153 5.72967Z" fill="#1AD079"/>
<path d="M4.29592 9.65304C4.26531 9.68876 4.21429 9.92855 4.18367 10.1786C4.05612 11.199 3.7449 11.852 3.06122 12.5459C2.44898 13.1735 1.63775 13.5918 0.647959 13.801C0.102041 13.9184 0 13.9694 0 14.1377C0 14.2806 0.122449 14.3367 0.540816 14.3877C1.42857 14.4949 1.95408 14.7092 2.57143 15.2041C3.54592 15.9898 4.05612 16.8775 4.17857 18C4.22449 18.4388 4.28571 18.5714 4.44388 18.5714C4.58673 18.5714 4.67347 18.3877 4.77041 17.9183C4.9898 16.8265 5.48469 15.9592 6.2602 15.301C6.84184 14.801 7.51531 14.5102 8.35714 14.3877C8.83673 14.3163 9.04082 14.199 8.94898 14.0459C8.88775 13.9439 8.75 13.8979 7.95918 13.7092C7.30102 13.5561 6.72959 13.2806 6.28061 12.9081C5.53571 12.2806 5.08673 11.5663 4.86735 10.6428C4.60204 9.5408 4.62755 9.61733 4.48469 9.60202C4.41326 9.59182 4.32653 9.61733 4.29592 9.65304Z" fill="#1AD079"/>
<path d="M15.5868 12.7602C14.3827 12.7806 13.3368 12.8215 13.2654 12.847C13.0715 12.9235 10.1072 15.8164 6.28066 19.6735C2.01025 23.9745 0.84188 25.199 0.795962 25.4133C0.750044 25.648 0.892901 25.9184 1.37759 26.5051C1.82657 27.051 17.9286 43.1684 21.097 46.25C24.2194 49.2857 24.8419 49.847 25.2041 49.9541C25.3878 50.0102 25.4337 50 25.7245 49.8572C26.3521 49.5459 26.5715 49.3368 36.7296 39.2653C44.75 31.3061 48.7092 27.3164 49.4235 26.4592C50.0358 25.7245 50.1072 25.5255 49.8725 25.199C49.4235 24.597 37.9337 13.051 37.6123 12.8878C37.4694 12.8164 37.1072 12.7959 35.0103 12.7551C32.2245 12.699 18.8674 12.7041 15.5868 12.7602ZM22.2092 15.0868C22.648 15.1021 23.0103 15.1378 23.0103 15.1633C23.0103 15.1888 21.0817 17.1429 18.7245 19.5051L14.4439 23.801L14.4388 19.4235V15.051H17.9235C19.8368 15.051 21.7654 15.0664 22.2092 15.0868ZM30.7143 20.3266L35.1786 24.7959H25.3827L15.5868 24.7908L20.4745 19.9184L25.3623 15.0459L25.8062 15.4541C26.0511 15.6786 28.2603 17.8725 30.7143 20.3266ZM36.3266 19.4235L36.3215 23.801L32.0409 19.5C29.6837 17.1327 27.7551 15.1786 27.7551 15.1531C27.7551 15.0868 28.4031 15.0766 32.6174 15.0612L36.3266 15.051V19.4235ZM12.9031 21.3878L12.9082 24.7959H8.6378H4.36229L8.59698 20.5613L12.8317 16.3266L12.8623 17.1531C12.8776 17.6123 12.898 19.5153 12.9031 21.3878ZM42.1684 20.5613L46.4031 24.7959H42.1531H37.9082V20.5613C37.9082 18.2296 37.9133 16.3266 37.9235 16.3266C37.9286 16.3266 39.8419 18.2296 42.1684 20.5613ZM13.2551 26.5408C13.5613 27.0459 20.6786 41.1582 21.2909 42.4745C21.7245 43.4082 21.7654 43.5204 21.6786 43.5204C21.648 43.5204 21.0102 42.9184 20.2602 42.1837C17.6072 39.5664 4.41331 26.4541 4.398 26.4184C4.3878 26.3929 6.35208 26.3776 8.76535 26.3776H13.1531L13.2551 26.5408ZM35.3113 27.4592C35.0051 28.0561 33.1684 31.7041 31.2245 35.5613C26.4847 44.9745 25.5562 46.7959 25.4082 46.9541C25.3419 47.0306 24.9337 46.2449 21.2449 38.9133C19.2654 34.9796 17.0358 30.5664 16.296 29.1021C15.5562 27.6429 14.949 26.4286 14.949 26.4133C14.949 26.3929 19.6582 26.3776 25.4082 26.3776H35.8674L35.3113 27.4592ZM46.3674 26.4286C46.347 26.4898 33.3368 39.4184 30.8827 41.8113C29.8725 42.801 28.9898 43.6429 28.9286 43.6735C28.8419 43.7194 29.449 42.4745 31.1735 39.051C34.2296 32.9898 37.0358 27.449 37.3572 26.847L37.6123 26.3776H42C44.8164 26.3776 46.3776 26.3929 46.3674 26.4286Z" fill="black"/>
<path d="M25.5103 17.4797C25.5103 17.5358 26.0103 19.1123 26.7654 21.4133L27.3521 23.2144H29.3521H31.3521L29.0307 20.8878C26.6684 18.5205 25.5103 17.4031 25.5103 17.4797Z" fill="black"/>
<path d="M32.9847 18.2194C33.8572 19.0868 34.6072 19.8266 34.6582 19.8521C34.7398 19.898 34.7449 19.8061 34.7449 18.2653V16.6327H33.0765H31.4031L32.9847 18.2194Z" fill="black"/>
<path d="M39.4693 20.3113C39.454 20.398 39.4387 21.1021 39.4387 21.8674V23.2654H41.0306H42.6275L41.0714 21.7093C40.2142 20.8521 39.5153 20.1531 39.5101 20.1531C39.505 20.1531 39.4897 20.2246 39.4693 20.3113Z" fill="black"/>
<path d="M27.3674 28.0154C27.3164 28.097 25.7092 41.0868 25.5306 42.8572L25.5051 43.1378L25.6531 42.9082C25.9184 42.495 26.8164 40.7603 29.2194 35.995C31.7245 31.0409 32.7245 29.0715 33.097 28.3776L33.3215 27.9592H30.3623C28.2092 27.9592 27.3929 27.9746 27.3674 28.0154Z" fill="black"/>
<path d="M38.0612 28.9643C37.7704 29.5204 36.8469 31.3418 36.0051 33.0102L34.4745 36.0459L38.5153 32.0153C40.7347 29.801 42.551 27.9796 42.551 27.9745C42.551 27.9643 41.6582 27.9592 40.5663 27.9592H38.5816L38.0612 28.9643Z" fill="black"/>
</g>
<defs>
<clipPath id="clip0_270_803">
<rect width="50" height="50" fill="white"/>
</clipPath>
</defs>
</svg>
