<svg width="80" height="69" viewBox="0 0 80 69" fill="none" xmlns="http://www.w3.org/2000/svg">
<path d="M45.3831 3.77339C43.6997 3.998 41.5084 4.7976 39.8625 5.7769C37.3044 7.29526 35.3953 9.3437 34.0692 11.9851C33.0064 14.1234 32.8184 14.9859 32.8184 17.8339C32.8278 20.4484 33.0064 21.3468 33.9281 23.3324C34.3231 24.1859 34.3325 24.2578 34.0692 24.2578C33.74 24.2578 25.5673 22.991 19.5482 22.0117C13.3599 21.0054 11.0369 20.655 10.2375 20.6011C9.56038 20.5562 9.45693 20.5742 9.16538 20.7718C8.98669 20.8796 8.76097 21.1042 8.67633 21.248C8.53526 21.4726 8.23431 22.9371 7.55716 26.7285C6.01478 35.2906 3.6824 48.6144 2.99585 52.7742C2.78895 54.014 2.67609 54.9574 2.71371 55.1371C2.79835 55.6042 3.26859 56.0445 3.83288 56.1972C4.4724 56.3769 15.7581 58.2097 29.1881 60.33C30.6082 60.5546 32.2635 60.8152 32.856 60.914C34.2949 61.1566 52.0135 63.9507 55.0042 64.4089C58.5592 64.957 60.9574 65.2445 61.5781 65.2085C62.0295 65.1726 62.1706 65.1277 62.3399 64.939C62.6503 64.5886 62.8384 63.6812 64.7381 53.0078C65.5657 48.3359 65.6128 48.1113 65.7162 48.0124C65.7726 47.9496 66.2147 47.7968 66.6943 47.671C72.3184 46.1437 76.4282 41.9929 77.6414 36.6203C77.9142 35.4164 77.933 32.748 77.6885 31.4453C77.4816 30.3761 76.9831 28.9476 76.5035 28.0312C74.9235 25.0484 71.7353 22.1374 68.7069 20.9246C67.1928 20.3226 66.0078 20.098 63.0923 19.8734L62.2459 19.8105L62.1894 17.789C62.1142 15.0757 61.8697 13.9976 60.8916 11.9941C59.2081 8.56206 55.6813 5.50737 52.1169 4.39331C50.5745 3.91713 49.6059 3.7644 47.7155 3.72846C46.7562 3.71049 45.7123 3.72847 45.3831 3.77339ZM49.8598 6.91792C52.1828 7.36713 53.9791 8.26558 55.6061 9.8019C56.9416 11.0777 57.6563 12.0839 58.2582 13.5574C58.8413 14.9679 58.9072 15.3902 58.9072 17.7621C58.9166 20.4124 58.9354 20.3585 57.8068 20.8527C56.7159 21.3109 56.1892 21.5894 55.3334 22.1285C53.1232 23.521 50.979 25.7671 49.9538 27.7617L49.4554 28.723L48.9005 28.7859C46.0603 29.0824 42.9755 28.3546 40.709 26.8542C39.9001 26.3242 38.4048 24.8687 37.7464 23.9613C36.4862 22.2542 35.762 19.6128 35.9031 17.232C36.0536 14.8331 37.0035 12.3265 38.386 10.6914C40.2293 8.52612 43.22 7.02573 46.3518 6.70229C47.076 6.63042 48.9569 6.74721 49.8598 6.91792ZM65.3212 23.0988C66.6943 23.2785 68.5659 23.9972 69.8073 24.8238C70.5973 25.3539 72.2807 26.9441 72.751 27.6089C73.2212 28.2738 73.9454 29.7292 74.2934 30.7355L74.5567 31.4902L74.5661 34.0058V36.5214L74.2463 37.3749C73.1366 40.3757 71.2274 42.5679 68.6599 43.8078C65.2366 45.4699 60.5154 45.38 57.2895 43.6191C54.7314 42.2175 53.048 40.196 52.1075 37.4199C51.6843 36.1531 51.5244 34.9132 51.6091 33.3769C51.7219 31.0859 52.2204 29.5855 53.443 27.8066C54.0919 26.8632 56.0669 24.9945 56.9228 24.5273C58.4181 23.7097 60.1392 23.1527 61.6534 23C62.4998 22.9191 64.3149 22.964 65.3212 23.0988ZM14.2534 24.2488C15.6829 24.4914 16.8961 24.716 16.9525 24.7429C17.3193 24.9675 16.5105 26.3242 15.3725 27.4023C14.686 28.0582 14.4132 28.2468 13.5762 28.6421C12.6263 29.0824 11.9116 29.289 10.877 29.4238C10.4538 29.4777 10.3786 29.4597 10.3786 29.3339C10.3786 29.1093 10.9241 25.6414 11.0934 24.8417C11.2909 23.8535 11.3097 23.8085 11.4884 23.8085C11.573 23.8085 12.8238 24.0062 14.2534 24.2488ZM23.7616 25.7941C25.3698 26.0457 29.0753 26.6207 31.9813 27.0878L37.2574 27.9234L38.1414 28.5882C40.9064 30.6996 44.3204 31.8945 47.5556 31.8945H48.4209V33.8441C48.4209 35.596 48.4491 35.9015 48.6466 36.7011C49.9915 42.1187 54.1766 46.2785 59.6784 47.6621C60.158 47.7789 60.9104 47.9226 61.343 47.9765C61.785 48.0214 62.18 48.1023 62.227 48.1472C62.3399 48.255 62.227 49.0726 61.7944 51.4355L61.4935 53.0527L60.7411 53.1156C57.9761 53.3582 56.3397 53.9062 54.581 55.173C52.8317 56.4308 51.8442 57.5089 50.9413 59.1351C50.6122 59.746 50.2642 60.3121 50.1701 60.4019C50.0197 60.5546 49.9256 60.5457 48.0447 60.2312C46.9537 60.0605 45.8345 59.8808 45.5524 59.8359C44.8659 59.7371 31.2007 57.5539 29.4703 57.2753C27.6269 56.9699 21.3728 55.9816 20.7238 55.8828C18.9745 55.6222 15.6641 55.0562 15.4854 54.9843C15.3537 54.9304 15.2597 54.7957 15.2314 54.607C14.8741 52.3699 14.5637 51.3546 13.8866 50.1238C12.7204 48.0124 10.6325 46.0988 8.44121 45.1464C8.07442 44.9847 7.74526 44.814 7.70764 44.7601C7.67002 44.7062 8.12145 41.93 8.69514 38.5968L9.74847 32.5324L10.1341 32.4874C12.2219 32.2718 13.2847 32.0023 14.5637 31.3824C15.7675 30.8074 16.5669 30.2773 17.4886 29.4507C18.4667 28.5613 19.0874 27.7796 19.6517 26.7285C20.1689 25.7761 20.4887 25.3359 20.6862 25.3359C20.7614 25.3359 22.1439 25.5425 23.7616 25.7941ZM9.17478 49.0007C10.6607 50.1238 11.8175 52.1183 11.9492 53.7894L12.0056 54.4542L11.5918 54.3914C10.2751 54.2117 7.05871 53.7085 6.6449 53.6187C6.26871 53.5468 6.14645 53.4749 6.14645 53.3582C6.14645 53.0527 6.99288 48.291 7.08693 48.0843L7.18097 47.8777L7.91454 48.2371C8.30954 48.4437 8.88323 48.7851 9.17478 49.0007ZM60.8822 56.296C60.8822 56.4847 60.1674 60.4648 59.9887 61.2914C59.9135 61.6328 59.8476 61.9292 59.8476 61.9562C59.8476 62.073 58.277 61.8843 55.4274 61.4082C53.4994 61.0937 53.5464 61.1027 53.5464 60.905C53.5464 60.4378 54.4869 59.0453 55.3522 58.2367C56.7723 56.907 58.4745 56.1882 60.2991 56.1613C60.7787 56.1523 60.8822 56.1792 60.8822 56.296Z" fill="black"/>
<path d="M47.1888 8.31945C46.6151 8.60695 46.2107 9.11906 46.2107 9.56828C46.2107 9.96359 46.0602 10.1163 45.2984 10.5116C44.358 11.0058 43.3611 11.9581 42.9473 12.7577C41.9221 14.7343 42.5334 16.6749 44.5649 17.9237C45.2326 18.328 45.9004 18.6155 47.4992 19.1905C49.0509 19.7386 49.1826 19.8015 49.5306 20.1069C50.029 20.5562 49.8033 21.5444 49.098 21.9937C48.7876 22.1913 48.5995 22.2362 47.9224 22.2632C46.869 22.3081 46.1731 22.1015 45.0821 21.3917C43.8501 20.6011 43.4457 20.5112 42.7592 20.8886C42.0632 21.2839 41.7623 22.2452 42.1196 22.9101C42.4018 23.4312 43.4457 24.0601 45.9004 25.1741C46.0226 25.237 46.1355 25.4077 46.2013 25.6503C46.333 26.1444 46.8879 26.6386 47.4145 26.7284C48.2609 26.8632 49.1544 26.3151 49.2767 25.5964C49.3425 25.228 49.4836 25.0933 50.1889 24.7519C50.8002 24.4554 51.8065 23.5749 52.2109 22.9999C53.1984 21.5984 53.2925 20.3046 52.5025 18.9839C51.7689 17.753 50.5463 16.9984 47.7813 16.055C45.9098 15.4081 45.3925 14.9679 45.637 14.1952C45.8815 13.4226 46.5587 13.0273 47.6496 13.0273C48.5149 13.0273 48.8911 13.18 49.6058 13.8089C50.3112 14.4198 50.5275 14.5097 51.167 14.4378C52.3144 14.321 52.8787 13.162 52.2486 12.2097C51.8536 11.6167 50.8943 10.8441 50.1137 10.4757C49.4554 10.1702 49.4083 10.1253 49.3143 9.76593C49.1356 9.12804 49.1074 9.0382 48.9569 8.82257C48.6465 8.37335 47.6496 8.09484 47.1888 8.31945Z" fill="#1AD079"/>
<path d="M62.8665 24.7699C62.4715 24.9586 62.133 25.4527 62.0483 25.9648C61.9637 26.4859 61.9261 26.5308 61.1267 26.9351C60.299 27.3484 59.2551 28.3277 58.8507 29.0644C57.7598 31.05 58.5027 33.1343 60.7599 34.4371C61.1737 34.6707 62.1612 35.0929 62.9982 35.3894C65.3118 36.198 65.5751 36.3508 65.7162 36.9886C65.7914 37.3211 65.5469 37.95 65.2271 38.2105C64.3995 38.9203 62.7913 38.7226 60.9009 37.6715C60.0075 37.1773 59.763 37.0875 59.3868 37.0785C57.7692 37.0515 57.3083 38.9562 58.7002 39.9355C59.1517 40.259 60.8163 41.0945 61.5123 41.3551C61.8602 41.4808 61.9167 41.5527 62.0107 41.8851C62.2929 42.9273 62.8101 43.4125 63.6565 43.4125C64.4371 43.4125 65.0673 42.8554 65.1707 42.0738C65.246 41.5258 65.3024 41.4629 65.9983 41.1304C66.6379 40.825 66.8636 40.6722 67.4561 40.1332C68.8198 38.9023 69.2524 37.0426 68.5282 35.5781C67.8511 34.1945 66.5532 33.332 63.807 32.4246C61.8885 31.7957 61.4746 31.4633 61.5687 30.6547C61.6627 29.8101 62.3399 29.3789 63.5719 29.3789C64.0045 29.3789 64.456 29.4148 64.5876 29.4687C64.7193 29.5136 65.1237 29.8101 65.4905 30.1336C65.9419 30.5379 66.2617 30.7355 66.4874 30.7804C67.804 31.014 68.7821 29.882 68.2743 28.7051C68.0204 28.139 66.8636 27.2136 65.7068 26.6476C65.4058 26.5039 65.2083 26.3511 65.1989 26.2523C65.1707 25.4976 64.8886 25.0215 64.3337 24.7609C63.9199 24.5812 63.2804 24.5812 62.8665 24.7699Z" fill="#1AD079"/>
<path d="M37.0223 30.3671C36.2794 30.5288 36.0254 30.8972 35.6774 32.3527L35.4799 33.2241L34.9251 33.323C32.6491 33.7542 30.6929 35.0929 29.8935 36.773C29.3669 37.8691 29.3951 39.5312 29.9499 40.5195C30.4954 41.4898 31.7651 42.7476 33.1476 43.673C33.3451 43.8077 33.3545 43.8257 33.2416 44.5714C33.1099 45.4429 32.3858 48.9917 32.3294 49.0456C32.2071 49.1624 31.2008 48.4257 29.9876 47.3386C28.8214 46.2874 28.2571 46.1796 27.4671 46.8894C26.8934 47.3925 26.7617 48.0304 27.1003 48.6683C27.4765 49.3511 29.1882 50.8066 30.5142 51.5433C31.5958 52.1452 31.6616 52.2261 31.5958 52.7741C31.4265 54.1577 31.4171 54.589 31.577 54.8675C31.972 55.6132 32.9219 55.8917 33.7024 55.5054C34.2573 55.2359 34.4924 54.8136 34.6994 53.7445C34.8969 52.7831 34.784 52.873 36.1477 52.5136C37.4644 52.1632 38.3954 51.6601 39.3171 50.8066C39.9284 50.2226 40.1635 49.9351 40.4457 49.3691L40.803 48.6503V47.3925C40.803 46.1796 40.7936 46.1167 40.5303 45.6406C39.9284 44.5534 39.0444 43.6011 37.8217 42.7386C37.201 42.3074 37.0882 42.1816 37.0882 41.9659C37.0882 41.2831 37.9816 37.2491 38.1697 37.1054C38.3296 36.9796 38.5835 37.2222 38.9691 37.8781C39.7309 39.1628 40.8124 39.5132 41.6965 38.7585C42.1855 38.3363 42.3172 37.9409 42.1761 37.321C41.9598 36.4226 40.756 35.0659 39.3829 34.1945L38.7246 33.7812L38.7998 33.2152C38.9973 31.7238 38.9973 31.58 38.8092 31.1577C38.5177 30.5288 37.7841 30.2054 37.0223 30.3671ZM34.8122 36.5034C34.8498 36.6652 34.1069 40.4296 34.0316 40.5015C33.9376 40.5913 33.0441 39.6749 32.856 39.2976C32.6303 38.8574 32.6209 38.6327 32.8184 37.9949C32.9313 37.6175 33.0817 37.4019 33.4767 37.0335C34.1821 36.3777 34.7464 36.1531 34.8122 36.5034ZM37.1258 46.0089C37.8876 46.8714 37.9064 47.9675 37.1728 48.812C36.8624 49.1714 36.0254 49.6835 35.7433 49.6835C35.5364 49.6835 35.5458 49.6027 35.9784 47.3925C36.3546 45.4429 36.4863 45.2812 37.1258 46.0089Z" fill="black"/>
</svg>
