<svg width="20" height="21" viewBox="0 0 20 21" fill="none" xmlns="http://www.w3.org/2000/svg">
<path d="M10 19.6353C14.9706 19.6353 19 15.647 19 10.7273C19 5.80757 14.9706 1.81934 10 1.81934C5.02944 1.81934 1 5.80757 1 10.7273C1 15.647 5.02944 19.6353 10 19.6353Z" stroke="black" stroke-width="2" stroke-linecap="round" stroke-linejoin="round"/>
<path d="M6.5 4.7886V3.13734C7.69537 2.65264 9.54492 2.27837 11.5013 2.62096C13.404 2.95417 15.428 3.96776 17.0727 6.26815H17C16.3386 6.26815 15.7033 6.52815 15.2341 6.99258C14.7647 7.45718 14.5 8.08841 14.5 8.74769C14.5 9.13843 14.3432 9.5142 14.0625 9.79208C13.7816 10.0701 13.3995 10.2272 13 10.2272C12.6005 10.2272 12.2184 10.0701 11.9375 9.79208C11.6568 9.5142 11.5 9.13843 11.5 8.74769C11.5 8.08841 11.2353 7.45718 10.7659 6.99258C10.2967 6.52815 9.66139 6.26815 9 6.26815H8C7.60053 6.26815 7.21844 6.11103 6.93752 5.83298C6.65677 5.55511 6.5 5.17933 6.5 4.7886ZM15 15.1863H16.8837C16.3893 15.6723 15.7957 16.1601 15.1893 16.6109C14.5936 17.0538 13.9994 17.4508 13.5 17.7635V16.6659C13.5 16.2752 13.6568 15.8994 13.9375 15.6215C14.2184 15.3435 14.6005 15.1863 15 15.1863ZM8.5 16.6659V18.1014C5.75832 17.8039 4.0472 16.5801 3.00184 15.1683C2.0286 13.8538 1.61584 12.3521 1.52171 11.2272H3C3.39947 11.2272 3.78156 11.3844 4.06248 11.6624C4.34323 11.9403 4.5 12.3161 4.5 12.7068C4.5 13.3661 4.76465 13.9973 5.23406 14.4619C5.70328 14.9263 6.33861 15.1863 7 15.1863C7.39947 15.1863 7.78156 15.3435 8.06248 15.6215C8.34323 15.8994 8.5 16.2752 8.5 16.6659Z" fill="#1AD079" stroke="black"/>
<path d="M6 4.7886V2.80905C8.5 1.65398 14.4 0.829503 18 6.76815H17C16.4696 6.76815 15.9609 6.97671 15.5858 7.34794C15.2107 7.71918 15 8.22268 15 8.74769C15 9.2727 14.7893 9.77621 14.4142 10.1474C14.0391 10.5187 13.5304 10.7272 13 10.7272C12.4696 10.7272 11.9609 10.5187 11.5858 10.1474C11.2107 9.77621 11 9.2727 11 8.74769C11 8.22268 10.7893 7.71918 10.4142 7.34794C10.0391 6.97671 9.53043 6.76815 9 6.76815H8C7.46957 6.76815 6.96086 6.55959 6.58579 6.18835C6.21071 5.81711 6 5.31361 6 4.7886ZM15 14.6863H18C16.8 16.27 14.167 17.9853 13 18.6454V16.6659C13 16.1409 13.2107 15.6374 13.5858 15.2661C13.9609 14.8949 14.4696 14.6863 15 14.6863ZM9 16.6659V18.6454C2.6 18.2495 1 13.2017 1 10.7272H3C3.53043 10.7272 4.03914 10.9358 4.41421 11.307C4.78929 11.6783 5 12.1818 5 12.7068C5 13.2318 5.21071 13.7353 5.58579 14.1065C5.96086 14.4778 6.46957 14.6863 7 14.6863C7.53043 14.6863 8.03914 14.8949 8.41421 15.2661C8.78929 15.6374 9 16.1409 9 16.6659Z" stroke="black" stroke-width="2" stroke-linecap="round" stroke-linejoin="round"/>
</svg>
