<svg width="170" height="30" viewBox="0 0 170 30" fill="none" xmlns="http://www.w3.org/2000/svg">
<g clip-path="url(#clip0_1_176)">
<path d="M12.177 0.562498C10.0759 1.3125 7.2107 3.1875 5.87363 4.59375C3.43823 7.26562 2.24441 10.3125 2.00565 14.3906C1.91014 16.5469 1.91014 18.2812 2.0534 18.2812C2.19666 18.2812 3.19947 17.8125 4.25003 17.25C6.06464 16.3125 6.2079 16.0781 6.2079 14.2031C6.2079 8.67187 11.2697 4.17187 17.4776 4.17187C22.5394 4.17187 26.1686 6.84375 27.8877 11.8594C28.8427 14.625 28.8427 15.1875 27.9354 18.1406C27.2669 20.3906 23.5899 24.8437 22.4439 24.8437C22.1573 24.8437 21.9663 25.9219 21.9663 27.2344V29.5781L24.8315 28.0781C29.7023 25.5469 32.5674 20.7187 32.5674 15C32.6152 9.14062 29.4635 4.07812 24.0197 1.40625C22.2051 0.468748 20.868 0.234373 17.6686 0.140623C15.4242 0.0937477 12.9888 0.281248 12.177 0.562498Z" fill="white"/>
<path d="M15.7584 6.375C12.4635 7.59375 10.8399 8.71875 9.78933 10.5C8.64326 12.375 8.16573 14.8125 8.97753 14.4375C9.16854 14.3438 10.9831 13.4062 13.0365 12.2812C16.4747 10.3594 16.809 10.2656 18.3848 10.7812C20.9635 11.625 21.6798 13.125 21.9663 18L22.2051 22.2656L23.6854 20.7656C27.5056 16.9219 26.264 9.60938 21.3933 7.35938C19.5309 6.51562 16.7612 6.04688 15.7584 6.375Z" fill="white"/>
<path d="M152.475 8.29688C152.331 8.76562 151.042 12.0469 149.61 15.6094C148.225 19.1719 147.079 22.1719 147.079 22.3125C147.079 22.4062 147.843 22.5 148.75 22.5C150.183 22.5 150.517 22.3125 151.09 20.8594C151.806 19.2656 151.854 19.2188 154.671 19.2188C157.489 19.2188 157.537 19.2188 158.062 20.8594C158.587 22.3594 158.778 22.5 160.497 22.5C161.5 22.5 162.36 22.4531 162.36 22.3594C162.36 22.3125 161.5 20.0625 160.402 17.3438C159.351 14.625 158.062 11.2969 157.537 9.9375C156.581 7.54688 156.534 7.5 154.671 7.5C153.287 7.5 152.714 7.73438 152.475 8.29688ZM155.674 14.2031C156.343 16.3125 156.247 16.5 154.337 16.3125L152.905 16.1719L153.669 13.9219C154.48 11.4844 154.767 11.5312 155.674 14.2031Z" fill="white"/>
<path d="M164.747 15V22.5H166.419H168.09V15V7.5H166.419H164.747V15Z" fill="white"/>
<path d="M15.6629 13.5469C12.177 15.3281 2.86517 20.7187 2.86517 20.9531C2.86517 21.0937 3.29495 21.9375 3.86798 22.7812L4.82304 24.375L7.54495 22.9219C9.02529 22.0781 10.6011 21.1875 10.9832 20.9062C11.6039 20.4375 10.4579 22.5469 8.73877 25.0781C8.4045 25.5937 8.11798 26.2969 8.11798 26.7187C8.11798 27.5156 10.8399 29.2031 11.5084 28.7812C11.7472 28.6406 12.559 27.4219 13.2753 26.1094L14.5646 23.6719L14.8034 26.7187L15.0421 29.7656L17.3343 29.9062L19.5787 30.0469V22.7812C19.5787 13.1719 19.0056 11.8125 15.6629 13.5469Z" fill="white"/>
<path d="M46.9173 8.60658C46.01 8.76559 44.6729 9.24263 43.9566 9.67992C40.1364 11.9856 40.0886 18.3462 43.9088 20.4133C46.583 21.8842 53.1729 21.9637 53.1729 20.5326C53.1729 18.9822 52.7431 18.7835 50.069 18.9027C47.8246 19.022 47.3471 18.9027 46.2965 18.0679C44.1476 16.279 44.0999 14.1323 46.0577 12.0651C47.0605 11.0315 47.2993 10.952 49.8779 11.111C52.5044 11.2701 52.6476 11.2303 52.8386 10.2762C52.9819 9.71967 52.9341 9.12337 52.7909 9.00411C52.2178 8.52707 48.6841 8.3283 46.9173 8.60658Z" fill="white"/>
<path d="M57.3274 14.6093C55.847 17.8691 54.6055 20.7314 54.6055 20.9699C54.6055 21.1687 55.3695 21.3674 56.2768 21.3674C57.7094 21.3674 58.0437 21.2084 58.6167 19.9761C59.333 18.6244 59.3807 18.5847 62.1504 18.5847C64.9201 18.5847 64.9678 18.6244 65.3976 19.8568C65.8274 21.0494 66.0661 21.1687 67.8807 21.2879C68.9791 21.3674 69.8864 21.3674 69.8864 21.2879C69.8864 21.2084 68.7881 18.8232 67.451 16.0007C66.1139 13.1385 64.8246 10.3557 64.5381 9.71968C64.1083 8.80535 63.8218 8.64633 62.0549 8.64633H60.097L57.3274 14.6093ZM63.392 15.2852C63.7263 16.12 63.583 16.1995 62.0072 16.1995C60.8133 16.1995 60.3358 16.0405 60.5268 15.6827C60.6223 15.4442 61.0043 14.4901 61.3386 13.6553L61.9594 12.1049L62.5324 13.2577C62.819 13.8938 63.2487 14.8081 63.392 15.2852Z" fill="white"/>
<path d="M69.4088 9.83894C69.4088 10.952 69.5043 11.0315 71.319 11.0315H73.2291V16.1995V21.3674H75.1392H77.0493V16.1995V11.0315H79.1982C81.2515 11.0315 81.347 10.9918 81.347 9.83894V8.64633H75.3779H69.4088V9.83894Z" fill="white"/>
<path d="M84.3555 12.9397C83.2572 15.2852 81.9201 18.1474 81.3948 19.2605L80.392 21.3674H82.2544C83.9735 21.3674 84.2122 21.2482 84.7375 19.9761C85.3583 18.5847 85.406 18.5847 88.128 18.5847C90.8499 18.5847 90.8976 18.6244 91.5662 19.9761C92.2347 21.2482 92.4257 21.3674 94.2881 21.3674C95.6729 21.3674 96.1982 21.2084 96.0072 20.8506C95.8639 20.6121 94.5268 17.7499 92.9987 14.4901L90.2768 8.64633H88.319H86.3611L84.3555 12.9397ZM89.465 15.0864C89.8471 16.1597 89.7993 16.1995 88.2235 16.1995C87.3162 16.1995 86.5999 16.1597 86.5999 16.0802C86.5999 16.0007 86.9341 15.0864 87.4117 14.013C88.2712 11.9061 88.319 11.9459 89.465 15.0864Z" fill="white"/>
<path d="M98.5381 15.0069V21.3674H103.313H108.089V20.1748V18.9822H105.223H102.358V13.8143V8.64633H100.448H98.5381V15.0069Z" fill="white"/>
<path d="M106.656 8.8451C106.656 8.92461 107.85 10.634 109.282 12.6217C111.766 16.0007 111.909 16.3983 111.909 18.7835V21.3674H113.819H115.729V18.7835C115.729 16.756 115.968 15.8417 116.827 14.6889C117.448 13.8938 118.642 12.1844 119.502 10.9123L121.03 8.64633H119.12C117.305 8.64633 117.162 8.72584 115.586 11.0713L113.914 13.4963L112.339 11.0713C110.763 8.68609 110.667 8.64633 108.709 8.64633C107.563 8.64633 106.656 8.72584 106.656 8.8451Z" fill="white"/>
<path d="M122.892 9.83894V11.0315H126.044H129.148L125.805 15.1261C123.656 17.7101 122.414 19.5785 122.414 20.2941V21.3674H127.906H133.398V20.1748V19.022L130.055 18.9027L126.712 18.7835L130.055 14.8479C132.252 12.2241 133.398 10.5147 133.398 9.75943V8.64633H128.145H122.892V9.83894Z" fill="white"/>
<path d="M136.74 15.0069V21.3674H141.277H145.813V20.1748V18.9822H142.948H140.083V17.5909V16.1995H142.709H145.336V14.8081V13.4167H142.709C140.131 13.4167 140.083 13.4167 140.083 12.2241V11.0315H142.948H145.813V9.83894V8.64633H141.277H136.74V15.0069Z" fill="white"/>
</g>
<defs>
<clipPath id="clip0_1_176">
<rect width="170" height="30" fill="white"/>
</clipPath>
</defs>
</svg>
