<svg width="57" height="56" viewBox="0 0 57 56" fill="none" xmlns="http://www.w3.org/2000/svg">
<circle cx="28.4023" cy="28" r="27" stroke="black" stroke-width="2"/>
<path d="M21.9779 28.0302C20.5238 28.0302 19.3645 27.5402 18.5 26.5601C17.6354 25.57 17.2031 24.2514 17.2031 22.6045C17.2031 20.8061 17.66 19.3915 18.5737 18.361C19.4873 17.3203 20.7203 16.7999 22.2726 16.7999C23.7758 16.7999 24.94 17.2799 25.7652 18.2397C26.6003 19.1996 27.0179 20.5484 27.0179 22.2863C27.0179 24.0241 26.5512 25.4184 25.6179 26.4692C24.6944 27.5099 23.481 28.0302 21.9779 28.0302ZM22.1842 18.467C21.2508 18.467 20.514 18.8257 19.9737 19.5431C19.4333 20.2504 19.1631 21.2254 19.1631 22.4681C19.1631 23.6907 19.4284 24.6455 19.9589 25.3325C20.4894 26.0095 21.2115 26.348 22.1252 26.348C23.0487 26.348 23.7708 25.9943 24.2915 25.2871C24.8122 24.5798 25.0726 23.5997 25.0726 22.3469C25.0726 21.1243 24.8122 20.1746 24.2915 19.4976C23.7807 18.8106 23.0782 18.467 22.1842 18.467ZM36.1252 17.1334L22.5673 39.0181H20.46L34.0031 17.1334H36.1252ZM34.5631 39.1999C33.1091 39.1999 31.9498 38.7048 31.0852 37.7147C30.2207 36.7245 29.7884 35.411 29.7884 33.7742C29.7884 31.9757 30.2501 30.5562 31.1737 29.5155C32.0972 28.4647 33.3252 27.9393 34.8579 27.9393C36.3512 27.9393 37.5154 28.4243 38.3505 29.3942C39.1856 30.3642 39.6031 31.7232 39.6031 33.4711C39.6031 35.1988 39.1365 36.5881 38.2031 37.6389C37.2796 38.6796 36.0663 39.1999 34.5631 39.1999ZM34.7694 29.6519C33.8263 29.6519 33.0845 30.0055 32.5442 30.7128C32.0137 31.42 31.7484 32.4001 31.7484 33.653C31.7484 34.8553 32.0137 35.8 32.5442 36.4871C33.0747 37.164 33.7968 37.5025 34.7105 37.5025C35.634 37.5025 36.3561 37.1489 36.8768 36.4416C37.3975 35.7242 37.6579 34.7442 37.6579 33.5014C37.6579 32.2688 37.3975 31.319 36.8768 30.6522C36.3659 29.9853 35.6635 29.6519 34.7694 29.6519Z" fill="#1AD079"/>
</svg>
